#!OML:ASF F:\VICON\USERDATA\INSTALL\rory3\rory3.ASF
:FULLY-SPECIFIED
:DEGREES
751
root -8.31831 18.0355 -8.38688 -1.76603 41.7358 0.458574
lowerback 11.6143 -1.48048 -2.31716
upperback 0.840398 -2.17698 1.22573
thorax -5.49688 -0.993569 2.94238
lowerneck -0.440778 -19.2812 -15.8684
upperneck 25.6121 -30.1349 15.7264
head 13.7888 -13.8076 3.77608
rclavicle -2.30342e-014 -3.18055e-015
rhumerus -40.643 34.5483 -100.204
rradius 93.7228
rwrist 0.842825
rhand -13.6172 10.7035
rfingers 7.12502
rthumb 12.4982 -18.9028
lclavicle -2.30342e-014 -3.18055e-015
lhumerus -43.8202 -28.0327 104.541
lradius 91.115
lwrist -2.00331
lhand -15.686 33.8086
lfingers 7.12502
lthumb 10.5031 63.5262
rfemur -9.3335 1.9297 22.46
rtibia 25.0708
rfoot -9.5171 -0.169388
rtoes 8.45903
lfemur -8.33129 4.70849 -15.8849
ltibia 53.7583
lfoot 3.08909 -18.0874
ltoes -21.2325
752
root -8.39181 18.0296 -8.46243 -1.71572 42.0937 0.64661
lowerback 11.439 -1.61221 -2.70863
upperback 0.917373 -2.39586 1.26032
thorax -5.28595 -1.09726 3.22434
lowerneck 0.0158578 -19.0868 -15.8376
upperneck 24.9464 -29.7885 15.8775
head 13.367 -13.7139 3.96365
rclavicle 1.10325e-014 6.36111e-015
rhumerus -40.7317 34.3149 -100.081
rradius 93.7619
rwrist 0.838252
rhand -13.6601 10.5482
rfingers 7.12502
rthumb 12.4568 -19.0606
lclavicle 1.10325e-014 6.36111e-015
lhumerus -43.7256 -28.208 104.699
lradius 90.9216
lwrist -2.2019
lhand -15.7331 33.745
lfingers 7.12502
lthumb 10.4576 63.4649
rfemur -9.65914 2.137 22.314
rtibia 25.3008
rfoot -9.36703 -0.786327
rtoes 8.48961
lfemur -6.69106 4.28378 -15.9563
ltibia 52.497
lfoot 3.91721 -19.2621
ltoes -20.5119
753
root -8.46191 18.0201 -8.5464 -1.93304 42.4068 0.441868
lowerback 11.2523 -1.752 -2.72455
upperback 1.01493 -2.57271 1.34915
thorax -5.06129 -1.18937 3.34216
lowerneck 0.265698 -18.9181 -15.9109
upperneck 24.5856 -29.5153 15.9997
head 13.1485 -13.6289 4.1083
rclavicle -2.68111e-014 1.27222e-014
rhumerus -40.7694 33.8881 -99.8969
rradius 93.8084
rwrist 0.799328
rhand -13.6751 10.5642
rfingers 7.12502
rthumb 12.4424 -19.0455
lclavicle -2.68111e-014 1.27222e-014
lhumerus -43.6468 -28.4186 104.827
lradius 90.8234
lwrist -2.35155
lhand -15.5057 33.8259
lfingers 7.12502
lthumb 10.677 63.5346
rfemur -10.0509 2.18579 22.4557
rtibia 25.5284
rfoot -9.03985 -1.23452
rtoes 6.72688
lfemur -5.09888 3.86234 -15.7574
ltibia 51.136
lfoot 4.52725 -20.4583
ltoes -20.4893
754
root -8.52586 18.0112 -8.64113 -1.98423 42.5227 0.194721
lowerback 10.9815 -1.87687 -2.63521
upperback 0.994701 -2.71515 1.48166
thorax -4.91856 -1.26375 3.43974
lowerneck 0.27169 -18.7769 -16.1326
upperneck 24.6529 -29.2566 15.839
head 13.1288 -13.5451 4.13728
rclavicle 3.35946e-014 -6.75868e-015
rhumerus -40.9632 33.6023 -99.7781
rradius 93.8923
rwrist 0.753609
rhand -13.3062 10.3384
rfingers 7.12502
rthumb 12.798 -19.2493
lclavicle 3.35946e-014 -6.75868e-015
lhumerus -43.6239 -28.4346 105.018
lradius 90.7619
lwrist -2.4586
lhand -15.2244 33.957
lfingers 7.12502
lthumb 10.9483 63.6515
rfemur -10.7322 2.06094 22.5574
rtibia 25.7811
rfoot -8.70716 -1.14346
rtoes 4.61686
lfemur -3.74897 3.52859 -15.6627
ltibia 49.6378
lfoot 5.22683 -21.4382
ltoes -19.9971
755
root -8.58721 18.0007 -8.73496 -1.87015 42.862 0.13778
lowerback 10.6928 -2.0466 -2.59236
upperback 0.958776 -2.92692 1.55117
thorax -4.77761 -1.37192 3.5054
lowerneck 0.0726952 -18.701 -16.2632
upperneck 24.9107 -29.0551 15.4769
head 13.1833 -13.4722 4.04915
rclavicle -3.47873e-014 1.19271e-014
rhumerus -41.1675 33.3555 -99.635
rradius 94.0227
rwrist 0.870539
rhand -12.9403 10.0643
rfingers 7.12502
rthumb 13.1507 -19.501
lclavicle -3.47873e-014 1.19271e-014
lhumerus -43.4876 -28.5822 105.242
lradius 90.6089
lwrist -2.56201
lhand -14.915 33.9494
lfingers 7.12502
lthumb 11.2467 63.6279
rfemur -11.4309 1.892 22.4807
rtibia 26.0436
rfoot -8.6819 -1.18813
rtoes 5.50207
lfemur -2.4429 2.91059 -15.7826
ltibia 48.0073
lfoot 6.11721 -22.1865
ltoes -19.3018
756
root -8.65122 17.989 -8.84733 -1.88836 42.847 0.133297
lowerback 10.7713 -2.08478 -2.50715
upperback 0.929202 -2.96903 1.55391
thorax -4.85335 -1.39223 3.47112
lowerneck 0.0591397 -18.5934 -16.3059
upperneck 24.8986 -28.8414 15.3296
head 13.1147 -13.3956 4.05125
rclavicle 5.1038e-014 -4.37326e-015
rhumerus -41.2371 32.9999 -99.4641
rradius 94.053
rwrist 1.08928
rhand -13.0666 10.0378
rfingers 7.12502
rthumb 13.029 -19.5353
lclavicle 5.1038e-014 -4.37326e-015
lhumerus -43.3227 -28.8506 105.415
lradius 90.4349
lwrist -2.74591
lhand -14.6026 34.0234
lfingers 7.12502
lthumb 11.548 63.6853
rfemur -12.1219 1.68699 22.3321
rtibia 26.3818
rfoot -8.65915 -0.963289
rtoes 8.53072
lfemur -0.943654 2.44634 -16.0544
ltibia 46.2341
lfoot 6.87276 -22.7204
ltoes -18.7904
757
root -8.72386 17.979 -8.93074 -1.86716 43.3279 0.171982
lowerback 10.6087 -2.24057 -2.7963
upperback 0.960941 -3.20365 1.61833
thorax -4.69203 -1.50632 3.72418
lowerneck 0.211414 -18.5405 -16.318
upperneck 24.6982 -28.6981 15.2081
head 12.9493 -13.3657 4.05976
rclavicle 6.26172e-015 -1.19271e-014
rhumerus -41.1611 32.5619 -99.1843
rradius 93.9864
rwrist 1.16799
rhand -13.2627 10.1553
rfingers 7.12502
rthumb 12.84 -19.4298
lclavicle 6.26172e-015 -1.19271e-014
lhumerus -43.1649 -29.1317 105.547
lradius 90.2769
lwrist -2.91329
lhand -14.3938 34.1153
lfingers 7.12502
lthumb 11.7494 63.7658
rfemur -12.6432 1.79362 22.2534
rtibia 26.7337
rfoot -8.5282 -1.55004
rtoes 9.42753
lfemur 0.577448 1.66451 -16.2243
ltibia 44.2963
lfoot 7.88779 -23.4547
ltoes -17.1184
758
root -8.787 17.9667 -9.02796 -1.75514 43.699 0.332717
lowerback 10.5367 -2.40902 -2.7897
upperback 0.91816 -3.43441 1.45971
thorax -4.68801 -1.62171 3.58303
lowerneck 0.166613 -18.4343 -16.2046
upperneck 24.8978 -28.5228 15.0132
head 12.9483 -13.2866 4.01647
rclavicle -3.98066e-014 -5.96354e-016
rhumerus -41.2376 32.0586 -99.2511
rradius 93.9354
rwrist 0.985038
rhand -12.7449 10.1901
rfingers 7.12502
rthumb 13.3391 -19.3629
lclavicle -3.98066e-014 -5.96354e-016
lhumerus -43.1616 -29.4681 105.534
lradius 90.1708
lwrist -3.1099
lhand -14.3518 34.4119
lfingers 7.12502
lthumb 11.7899 64.0601
rfemur -13.25 1.68426 21.9902
rtibia 27.1188
rfoot -8.24003 -1.74667
rtoes 9.69753
lfemur 2.09957 0.853681 -16.6509
ltibia 42.1995
lfoot 8.93177 -23.756
ltoes -15.7021
759
root -8.85782 17.9565 -9.12315 -1.53716 43.7101 0.247116
lowerback 10.3394 -2.53258 -2.64273
upperback 0.711838 -3.58708 1.35069
thorax -4.79841 -1.69695 3.40335
lowerneck 0.00451742 -18.251 -16.1021
upperneck 25.2878 -28.2331 14.7279
head 13.0124 -13.1502 3.95624
rclavicle -2.47487e-014 -1.98785e-016
rhumerus -41.5663 31.6378 -99.5626
rradius 93.9178
rwrist 0.809043
rhand -12.2811 10.3496
rfingers 7.12502
rthumb 13.7861 -19.1737
lclavicle -2.47487e-014 -1.98785e-016
lhumerus -43.1051 -29.6723 105.463
lradius 89.9415
lwrist -3.42025
lhand -14.0021 34.5401
lfingers 7.12502
lthumb 12.1271 64.1686
rfemur -14.2035 2.08287 21.9733
rtibia 27.5133
rfoot -7.84214 -1.99369
rtoes 9.81124
lfemur 3.3996 0.30438 -16.8403
ltibia 39.996
lfoot 10.0736 -23.9147
ltoes -14.0732
760
root -8.93287 17.9408 -9.19893 -1.57274 43.9572 0.165843
lowerback 10.1797 -2.67816 -2.87021
upperback 0.673225 -3.80173 1.40337
thorax -4.71528 -1.79997 3.60621
lowerneck 0.163069 -18.0838 -16.161
upperneck 25.1798 -27.9569 14.6575
head 12.8786 -13.058 4.01883
rclavicle 3.03022e-014 -5.76476e-015
rhumerus -41.7937 31.2512 -99.625
rradius 93.9414
rwrist 0.803117
rhand -12.7696 10.1317
rfingers 7.12502
rthumb 13.3153 -19.4229
lclavicle 3.03022e-014 -5.76476e-015
lhumerus -42.8872 -29.7943 105.492
lradius 89.7294
lwrist -3.80077
lhand -13.5958 35.2805
lfingers 7.12502
lthumb 12.5189 64.8855
rfemur -14.7585 2.40762 21.9992
rtibia 27.9044
rfoot -7.69663 -2.32959
rtoes 9.65352
lfemur 5.0226 -0.378795 -16.9498
ltibia 37.7207
lfoot 11.3176 -24.0938
ltoes -11.682
761
root -9.00626 17.9239 -9.29402 -1.33415 44.0215 0.270955
lowerback 9.96193 -2.72195 -3.20941
upperback 0.664926 -3.88804 1.51341
thorax -4.56528 -1.83928 3.90911
lowerneck 0.312886 -17.98 -16.2789
upperneck 24.8074 -27.7428 14.6663
head 12.6743 -12.9998 4.09914
rclavicle -8.7838e-014 2.24627e-014
rhumerus -41.7125 30.9396 -99.2182
rradius 94.0044
rwrist 1.09166
rhand -13.084 9.91926
rfingers 7.12502
rthumb 13.0122 -19.6549
lclavicle -8.7838e-014 2.24627e-014
lhumerus -42.4736 -29.8165 105.568
lradius 89.5965
lwrist -4.39095
lhand -12.9122 36.1309
lfingers 7.12502
lthumb 13.1779 65.6944
rfemur -15.5817 2.39162 21.8258
rtibia 28.2722
rfoot -7.44744 -2.27604
rtoes 9.14565
lfemur 6.39356 -1.05841 -17.3862
ltibia 35.4362
lfoot 12.5839 -23.8401
ltoes -8.39581
